<svg height="511pt" viewBox="0 -20 511.9996 511" width="511pt" xmlns="http://www.w3.org/2000/svg"><path d="m456.765625 464.0625h-401.53125c-26.332031 0-47.675781-21.347656-47.675781-47.679688 0-4.3125 3.492187-7.804687 7.804687-7.804687h481.273438c4.3125 0 7.808593 3.492187 7.808593 7.804687-.003906 26.332032-21.347656 47.679688-47.679687 47.679688zm0 0" fill="#ababab"/><path d="m496.636719 408.578125h-29.257813c-5.386718 20.425781-23.984375 35.488281-46.105468 35.488281h-401.53125c-1.148438 0-2.289063-.042968-3.417969-.121094 8.640625 12.171876 22.847656 20.117188 38.910156 20.117188h401.53125c26.332031 0 47.675781-21.347656 47.675781-47.679688 0-4.3125-3.492187-7.804687-7.804687-7.804687zm0 0" fill="#949494"/><path d="m43.050781 218.117188c-19.601562 0-35.492187-15.890626-35.492187-35.492188v-48.488281h70.984375v48.488281c-.003907 19.601562-15.890625 35.492188-35.492188 35.492188zm0 0" fill="#f94530"/><path d="m49.21875 134.136719v48.488281c0 14.375-8.542969 26.753906-20.828125 32.332031 4.46875 2.03125 9.429687 3.160157 14.660156 3.160157 19.601563 0 35.492188-15.890626 35.492188-35.492188v-48.488281zm0 0" fill="#d93c2a"/><path d="m114.03125 218.117188c-19.601562 0-35.488281-15.890626-35.488281-35.492188v-48.488281h70.980469v48.488281c0 19.601562-15.890626 35.492188-35.492188 35.492188zm0 0" fill="#ebebeb"/><path d="m120.203125 134.136719v48.488281c0 14.375-8.542969 26.753906-20.832031 32.332031 4.46875 2.03125 9.433594 3.160157 14.660156 3.160157 19.601562 0 35.492188-15.890626 35.492188-35.492188v-48.488281zm0 0" fill="#ccc"/><path d="m185.015625 218.117188c-19.601563 0-35.492187-15.890626-35.492187-35.492188v-48.488281h70.984374v48.488281c0 19.601562-15.890624 35.492188-35.492187 35.492188zm0 0" fill="#f94530"/><path d="m191.1875 134.136719v48.488281c0 14.375-8.546875 26.753906-20.832031 32.332031 4.46875 2.03125 9.433593 3.160157 14.660156 3.160157 19.601563 0 35.492187-15.890626 35.492187-35.492188v-48.488281zm0 0" fill="#d93c2a"/><path d="m256 218.117188c-19.601562 0-35.492188-15.890626-35.492188-35.492188v-48.488281h70.984376v48.488281c0 19.601562-15.890626 35.492188-35.492188 35.492188zm0 0" fill="#ebebeb"/><path d="m262.171875 134.136719v48.488281c0 14.375-8.546875 26.753906-20.832031 32.332031 4.46875 2.03125 9.433594 3.160157 14.660156 3.160157 19.601562 0 35.492188-15.890626 35.492188-35.492188v-48.488281zm0 0" fill="#ccc"/><path d="m326.984375 218.117188c-19.601563 0-35.492187-15.890626-35.492187-35.492188v-48.488281h70.984374v48.488281c0 19.601562-15.890624 35.492188-35.492187 35.492188zm0 0" fill="#f94530"/><path d="m333.15625 134.136719v48.488281c0 14.375-8.546875 26.753906-20.832031 32.332031 4.46875 2.03125 9.433593 3.160157 14.660156 3.160157 19.601563 0 35.492187-15.890626 35.492187-35.492188v-48.488281zm0 0" fill="#d93c2a"/><path d="m397.96875 218.117188c-19.601562 0-35.492188-15.890626-35.492188-35.492188v-48.488281h70.984376v48.488281c0 19.601562-15.890626 35.492188-35.492188 35.492188zm0 0" fill="#ebebeb"/><path d="m468.953125 218.117188c-19.601563 0-35.492187-15.890626-35.492187-35.492188v-48.488281h70.984374v48.488281c-.003906 19.601562-15.890624 35.492188-35.492187 35.492188zm0 0" fill="#f94530"/><path d="m475.121094 134.136719v48.488281c0 14.375-8.542969 26.753906-20.828125 32.332031 4.46875 2.03125 9.429687 3.160157 14.660156 3.160157 19.601563 0 35.492187-15.890626 35.492187-35.492188v-48.488281zm0 0" fill="#d93c2a"/><path d="m404.140625 134.136719v48.488281c0 14.375-8.546875 26.753906-20.832031 32.332031 4.46875 2.03125 9.433594 3.160157 14.660156 3.160157 19.601562 0 35.492188-15.890626 35.492188-35.492188v-48.488281zm0 0" fill="#ccc"/><path d="m433.460938 182.625c0 19.601562-15.890626 35.492188-35.492188 35.492188s-35.492188-15.890626-35.492188-35.492188c0 19.601562-15.890624 35.492188-35.492187 35.492188s-35.492187-15.890626-35.492187-35.492188c0 19.601562-15.890626 35.492188-35.492188 35.492188s-35.492188-15.890626-35.492188-35.492188c0 19.601562-15.890624 35.492188-35.492187 35.492188s-35.492187-15.890626-35.492187-35.492188c0 19.601562-15.890626 35.492188-35.492188 35.492188s-35.492188-15.890626-35.492188-35.492188c0 18.25-13.773437 33.273438-31.492187 35.261719v190.691406h417.90625v-190.691406c-17.71875-1.988281-31.492187-17.011719-31.492187-35.261719zm0 0" fill="#bdbdbd"/><path d="m433.460938 182.625c0 19.601562-15.890626 35.492188-35.492188 35.492188s-35.492188-15.890626-35.492188-35.492188c0 19.601562-15.890624 35.492188-35.492187 35.492188s-35.492187-15.890626-35.492187-35.492188c0 19.601562-15.890626 35.492188-35.492188 35.492188s-35.492188-15.890626-35.492188-35.492188c0 19.601562-15.890624 35.492188-35.492187 35.492188s-35.492187-15.890626-35.492187-35.492188c0 19.601562-15.890626 35.492188-35.492188 35.492188s-35.492188-15.890626-35.492188-35.492188c0 18.25-13.773437 33.273438-31.492187 35.261719v31c17.71875-1.984375 31.492187-17.019531 31.492187-35.269531 0 19.601562 15.890626 35.492187 35.492188 35.492187s35.492188-15.890625 35.492188-35.492187c0 19.601562 15.890624 35.492187 35.492187 35.492187s35.492187-15.890625 35.492187-35.492187c0 19.601562 15.890626 35.492187 35.492188 35.492187s35.492188-15.890625 35.492188-35.492187c0 19.601562 15.890624 35.492187 35.492187 35.492187s35.492187-15.890625 35.492187-35.492187c0 19.601562 15.890626 35.492187 35.492188 35.492187s35.492188-15.890625 35.492188-35.492187c0 18.25 13.773437 33.28125 31.492187 35.269531v-31c-17.71875-1.988281-31.492187-17.011719-31.492187-35.261719zm0 0" fill="#a3a3a3"/><path d="m456.796875 38.636719c-9.363281-18.773438-28.542969-30.636719-49.523437-30.636719h-302.546876c-20.980468 0-40.15625 11.863281-49.523437 30.636719l-47.648437 95.5h496.886718zm0 0" fill="#f94530"/><path d="m55.203125 62.628906c9.363281-18.773437 28.539063-30.636718 49.523437-30.636718h302.546876c20.980468 0 40.15625 11.863281 49.523437 30.636718l35.675781 71.507813h11.96875l-47.644531-95.5c-9.363281-18.773438-28.542969-30.636719-49.523437-30.636719h-302.546876c-20.980468 0-40.15625 11.863281-49.523437 30.636719l-47.648437 95.5h11.972656zm0 0" fill="#d93c2a"/><path d="m397.96875 218.117188c-19.601562 0-35.492188-15.890626-35.492188-35.492188 0 19.601562-15.890624 35.492188-35.492187 35.492188s-35.492187-15.890626-35.492187-35.492188c0 19.601562-15.890626 35.492188-35.492188 35.492188s-35.492188-15.890626-35.492188-35.492188c0 19.601562-15.890624 35.492188-35.492187 35.492188s-35.492187-15.890626-35.492187-35.492188c0 19.601562-15.890626 35.492188-35.492188 35.492188-14.085938 0-26.257812-8.210938-31.992188-20.105469v178.613281h347.921876v-178.613281c-5.730469 11.894531-17.902344 20.105469-31.992188 20.105469zm0 0" fill="#58caee"/><path d="m397.96875 218.117188c-19.601562 0-35.492188-15.890626-35.492188-35.492188 0 19.601562-15.890624 35.492188-35.492187 35.492188s-35.492187-15.890626-35.492187-35.492188c0 19.601562-15.890626 35.492188-35.492188 35.492188s-35.492188-15.890626-35.492188-35.492188c0 19.601562-15.890624 35.492188-35.492187 35.492188s-35.492187-15.890626-35.492187-35.492188c0 19.601562-15.890626 35.492188-35.492188 35.492188-14.085938 0-26.257812-8.210938-31.992188-20.105469v30.992187c5.734376 11.894532 17.90625 20.105469 31.992188 20.105469 19.601562 0 35.492188-15.890625 35.492188-35.492187 0 19.601562 15.890624 35.492187 35.492187 35.492187s35.492187-15.890625 35.492187-35.492187c0 19.601562 15.890626 35.492187 35.492188 35.492187s35.492188-15.890625 35.492188-35.492187c0 19.601562 15.890624 35.492187 35.492187 35.492187s35.492187-15.890625 35.492187-35.492187c0 19.601562 15.890626 35.492187 35.492188 35.492187 14.089844 0 26.261719-8.210937 31.992188-20.105469v-30.992187c-5.730469 11.894531-17.902344 20.105469-31.992188 20.105469zm0 0" fill="#4cafcf"/><path d="m256.964844 428.820312h-41.320313c-4.144531 0-7.5 3.355469-7.5 7.496094 0 4.144532 3.355469 7.5 7.5 7.5h41.320313c4.144531 0 7.5-3.355468 7.5-7.5 0-4.140625-3.355469-7.496094-7.5-7.496094zm0 0"/><path d="m296.292969 428.820312h-11.332031c-4.140626 0-7.5 3.355469-7.5 7.496094 0 4.144532 3.359374 7.5 7.5 7.5h11.332031c4.140625 0 7.496093-3.355468 7.496093-7.5 0-4.140625-3.355468-7.496094-7.496093-7.496094zm0 0"/><path d="m511.910156 182.625c-.003906-51.324219.503906-49.363281-.851562-51.953125l-47.585938-95.382813c-10.703125-21.460937-32.25-34.789062-56.230468-34.789062h-58.964844c-4.140625 0-7.496094 3.355469-7.496094 7.5 0 4.140625 3.355469 7.496094 7.496094 7.496094h58.964844c18.257812 0 34.660156 10.148437 42.8125 26.488281l42.234374 84.652344h-472.644531l42.234375-84.65625c8.152344-16.335938 24.554688-26.484375 42.8125-26.484375h215.59375c4.144532 0 7.5-3.355469 7.5-7.496094 0-4.144531-3.355468-7.5-7.5-7.5h-215.59375c-23.980468 0-45.527344 13.328125-56.230468 34.789062-50.683594 102.015626-48.3710942 95.714844-48.4335942 98.691407-.0625 2.777343 0-11.359375-.0039063 48.644531 0 22.527344 17.4179685 41.0625 39.4921875 42.847656v175.605469h-24.183594c-8.441406 0-15.3085935 6.867187-15.3085935 15.304687 0 30.425782 24.7539065 55.175782 55.1757815 55.175782h401.53125c30.425781 0 55.175781-24.75 55.175781-55.175782 0-8.4375-6.867188-15.304687-15.304688-15.304687h-24.183593v-175.605469c22.074219-1.785156 39.492187-20.320312 39.492187-42.847656zm-15-40.992188v40.992188c0 16.613281-14.421875 29.566406-30.925781 27.839844-15.347656-2.183594-25.058594-14.117188-25.058594-27.839844v-40.992188zm-70.980468 40.992188c0 7.433594-2.917969 14.203125-7.664063 19.222656-17.4375 18.328125-48.324219 6-48.324219-19.222656v-40.992188h55.988282zm-70.984376 0c0 15.433594-12.558593 27.992188-27.996093 27.992188-15.433594 0-27.992188-12.558594-27.992188-27.992188v-40.992188h55.988281zm-70.984374 0c0 15.433594-12.558594 27.992188-27.996094 27.992188-15.433594 0-27.992188-12.558594-27.992188-27.992188v-40.992188h55.988282zm-70.984376 0c0 15.433594-12.558593 27.992188-27.992187 27.992188-15.4375 0-27.996094-12.558594-27.996094-27.992188v-40.992188h55.988281zm-70.984374 0c0 25.3125-30.929688 37.503906-48.324219 19.222656-4.746094-5.019531-7.664063-11.785156-7.664063-19.222656v-40.992188h55.988282zm-126.96875 0v-40.992188h55.984374c0 42.136719.050782 41.078126-.054687 42.765626-.980469 15.027343-13.472656 26.21875-27.9375 26.21875-15.4375 0-27.992187-12.554688-27.992187-27.992188zm481.886718 233.757812c0 22.15625-18.023437 40.179688-40.175781 40.179688h-401.53125c-22.15625 0-40.179687-18.023438-40.179687-40.179688 0-.609374-21.476563-.164062 481.582031-.308593.167969 0 .304687.136719.304687.308593zm-442.398437-15.304687v-177.019531c7.816406-2.152344 14.683593-6.429688 19.996093-12.144532v164.710938c0 4.140625 3.359376 7.5 7.5 7.5h257.941407c4.140625 0 7.496093-3.359375 7.496093-7.5s-3.355468-7.5-7.496093-7.5h-250.445313v-151.1875c19.695313 13.722656 46.585938 8.488281 59.988282-11.078125 16.714843 24.402344 53.570312 25.425781 70.984374 0 17.058594 24.910156 53.890626 24.953125 70.980469 0 17.035157 24.867187 53.832031 25.042969 70.984375 0 13.492188 19.695313 40.53125 24.632813 59.988282 11.078125v151.191406h-54.488282c-4.140625 0-7.5 3.355469-7.5 7.496094 0 4.144531 3.359375 7.5 7.5 7.5h61.984375c4.140625 0 7.5-3.355469 7.5-7.5v-164.710938c5.3125 5.714844 12.179688 9.992188 19.996094 12.144532v177.019531zm0 0"/></svg>